HIERARCHY
ROOT Hips
{
  OFFSET 226.904 98.5744 228.996
  CHANNELS 6 Xposition Yposition Zposition Zrotation Xrotation Yrotation
  JOINT ToSpine
  {
    OFFSET -0.0105055 1.38907 -7.13956
    CHANNELS 3 Zrotation Xrotation Yrotation
    JOINT Spine
    {
      OFFSET 0.0105055 10 1
      CHANNELS 3 Zrotation Xrotation Yrotation
      JOINT Spine1
      {
        OFFSET 0 12 1.60637
        CHANNELS 3 Zrotation Xrotation Yrotation
        JOINT Neck
        {
          OFFSET 0 27 2.26658
          CHANNELS 3 Zrotation Xrotation Yrotation
          JOINT Head
          {
            OFFSET 0 9 2.12705
            CHANNELS 3 Zrotation Xrotation Yrotation
            End Site
            {
              OFFSET 0 11 2
            }
          }
        }
        JOINT LeftShoulder
        {
          OFFSET 8 19.6109 2.86452
          CHANNELS 3 Zrotation Xrotation Yrotation
          JOINT LeftArm
          {
            OFFSET 12 1 0.681055
            CHANNELS 3 Zrotation Xrotation Yrotation
            JOINT LeftForeArm
            {
              OFFSET 19 0 -1.52608
              CHANNELS 3 Zrotation Xrotation Yrotation
              JOINT LeftHand
              {
                OFFSET 23 0 0
                CHANNELS 3 Zrotation Xrotation Yrotation
                End Site
                {
                  OFFSET 10 0 0
                }
              }
            }
          }
        }
        JOINT RightShoulder
        {
          OFFSET -8 19.6109 2.86452
          CHANNELS 3 Zrotation Xrotation Yrotation
          JOINT RightArm
          {
            OFFSET -12 1 0.681055
            CHANNELS 3 Zrotation Xrotation Yrotation
            JOINT RightForeArm
            {
              OFFSET -19 0 -1.52608
              CHANNELS 3 Zrotation Xrotation Yrotation
              JOINT RightHand
              {
                OFFSET -23 0 0
                CHANNELS 3 Zrotation Xrotation Yrotation
                End Site
                {
                  OFFSET -10 0 0
                }
              }
            }
          }
        }
      }
    }
  }
  JOINT LeftUpLeg
  {
    OFFSET 9 -7.17245 0
    CHANNELS 3 Zrotation Xrotation Yrotation
    JOINT LeftLeg
    {
      OFFSET 0 -44.1113 0
      CHANNELS 3 Zrotation Xrotation Yrotation
      JOINT LeftFoot
      {
        OFFSET 0 -36.1829 0
        CHANNELS 3 Zrotation Xrotation Yrotation
        JOINT LeftToeBase
        {
          OFFSET 0 -4.84184 13
          CHANNELS 3 Zrotation Xrotation Yrotation
          End Site
          {
            OFFSET 0 1 6
          }
        }
      }
    }
  }
  JOINT RightUpLeg
  {
    OFFSET -9 -7.17245 0
    CHANNELS 3 Zrotation Xrotation Yrotation
    JOINT RightLeg
    {
      OFFSET 0 -44.0551 0
      CHANNELS 3 Zrotation Xrotation Yrotation
      JOINT RightFoot
      {
        OFFSET 0 -36.1469 0
        CHANNELS 3 Zrotation Xrotation Yrotation
        JOINT RightToeBase
        {
          OFFSET 0 -4.92256 13
          CHANNELS 3 Zrotation Xrotation Yrotation
          End Site
          {
            OFFSET 0 1 6
          }
        }
      }
    }
  }
}
MOTION
Frames:	12
Frame Time:	0.0333333
127.748 87.4405 135.766 7.68962 14.7593 -37.4889 0 0 0 4.28114 23.3206 2.48139 -6.55259 -5.16084 4.34036 14.5126 -25.4723 3.60163 -4.12755 -1.7964 5.18991 -24.5449 4.05399 -9.62073 -27.8481 20.3573 -49.7301 24.8343 -2.41553 -95.2036 -10.1797 0.241292 -2.70854 27.5911 7.66089 18.9693 42.7142 -10.5951 -17.8292 -26.4565 13.5121 64.8489 -2.83619 -0.246705 9.94066 36.4199 -42.5963 33.5537 -1.63576e-007 51.7004 -34.5077 12.1066 -10.944 1.16406 1.54057 -21.9575 -0.692286 -32.0898 -32.6748 -35.0207 -1.63195e-007 56.9728 -6.47365 -25.2642 -14.725 -3.31745 4.8871 -18.9539 -5.37951 
125.704 86.0539 134.281 7.23114 12.888 -41.2033 0 0 0 2.51499 23.8954 2.73891 -3.29672 -5.33651 3.82845 15.6565 -22.9857 4.90326 -5.49461 -2.70608 7.1096 -23.8565 4.05809 -9.91767 -30.5579 18.4364 -51.2229 21.842 -2.8232 -97.0056 -11.2749 0.256565 -2.59872 26.5229 6.97688 17.6375 34.6781 -20.9584 -27.5958 -21.5296 10.3235 65.57 -6.33154 -0.463609 8.36725 39.4916 -39.1789 35.0953 9.58143e-007 54.1234 -32.6786 12.0644 -12.9382 1.37298 1.51273 -22.3669 0.605407 -37.0534 -31.9222 -37.4 -4.65479e-008 56.7965 -7.80297 -26.827 -13.0313 -3.12044 4.74986 -18.5901 -6.58362 
123.614 84.2461 132.825 6.10188 10.731 -44.4861 0 0 0 2.58106 24.7125 1.53542 -1.02176 -5.80311 2.31208 16.1141 -21.1612 6.60036 -6.2416 -1.28728 9.22974 -22.5524 3.94224 -10.0912 -33.5605 16.1724 -52.3219 20.9127 -3.46017 -98.9756 -12.0155 0.257641 -2.44773 24.9435 6.21178 16.2604 24.1355 -23.6021 -35.9121 -11.7533 6.21748 62.5015 -6.70152 -0.429977 7.33394 41.9257 -35.4729 34.4925 -1.37653e-006 56.6713 -32.0051 9.29625 -15.2943 1.25087 1.54199 -23.5035 2.53984 -42.1345 -31.0546 -41.261 -1.61907e-007 56.8255 -11.1825 -27.2061 -14.2286 -3.45982 4.30153 -16.3654 -5.12247 
121.125 82.9914 131.402 5.47772 9.54039 -49.6728 0 0 0 5.43735 24.0932 0.338686 -2.66037 -5.9007 1.87457 18.0973 -18.1438 8.57106 -8.44793 -2.18658 12.2506 -17.134 3.47192 -11.001 -37.1256 13.8412 -53.6524 21.0633 -4.21029 -100.793 -12.6959 0.222978 -2.00412 23.9745 5.68992 15.1714 15.8558 -22.3904 -42.0251 -7.41437 4.31971 59.9374 -6.91981 -0.451046 7.44972 44.5831 -30.0185 34.592 1.84871e-006 56.8873 -30.3203 5.72216 -17.9164 0.902756 1.56653 -23.4472 1.61443 -46.564 -33.4799 -45.1374 -3.61731e-007 58.7376 -11.7693 -20.0519 -13.7651 -2.44498 3.17123 -11.5072 -3.92217 
117.539 82.0455 129.458 5.87567 7.33813 -55.6137 0 0 0 5.19226 23.1902 -0.416597 -1.11792 -5.81705 1.02765 11.8268 -16.6738 11.9559 -5.89777 -2.15165 14.2363 -17.2058 3.28471 -10.1884 -36.2182 10.4923 -51.1511 20.0822 -5.07149 -103.593 -12.9096 0.363376 -3.211 19.8967 4.9093 14.9571 10.7065 -18.68 -44.2406 -7.18954 4.41387 58.6126 -2.96544 -0.160905 6.21027 44.75 -22.6997 34.3593 -1.71215e-006 54.016 -28.8062 2.49992 -17.9395 0.394657 1.64786 -24.5249 2.34738 -50.0839 -36.3489 -49.1695 -8.27343e-007 59.4005 -9.51029 -24.6595 -11.0057 -2.41269 3.83015 -14.3261 -6.4661 
112.957 82.2763 127.039 6.34151 4.25492 -60.7973 0 0 0 6.53481 22.7205 -1.90327 -3.36297 -6.29861 0.209837 7.82341 -15.1725 15.166 -5.18937 -1.3803 16.6874 -15.1337 2.92015 -9.72633 -35.2091 8.50479 -47.8198 19.0867 -5.29218 -104.926 -12.5922 0.416266 -3.7715 17.4683 4.79811 16.2004 9.23842 -16.4373 -46.9604 -7.80995 4.42045 60.6668 -4.37668 -0.252107 6.59028 42.0049 -14.2984 31.6876 -8.02502e-007 46.0759 -27.627 -0.197485 -10.4338 -0.0180313 2.40865 -30.5922 6.27531 -51.8287 -37.7385 -52.7941 -1.85113e-007 59.3314 -3.66043 -26.6185 -8.93281 -2.1172 4.66298 -18.6587 -8.84987 
107.323 83.4413 123.987 7.48108 0.831905 -65.9279 0 0 0 7.79828 21.7768 -3.37672 -6.74872 -7.44086 -0.629958 2.38201 -13.4811 18.5914 -3.97791 -0.572748 18.9184 -15.0235 2.7697 -9.1074 -32.9798 7.41702 -39.629 17.3687 -5.03638 -105.678 -13.1012 0.526631 -4.58377 16.8051 4.73024 16.4222 8.53163 -16.2069 -46.9056 -10.7741 5.18829 64.5824 -3.90097 -0.229957 6.74463 37.7466 -5.73393 26.9466 -2.89873e-007 33.4817 -24.7803 -5.17444 7.33694 0.331982 3.8703 -42.1166 4.46035 -51.1781 -38.9852 -55.5373 -1.19214e-007 59.9506 2.8368 -27.384 -6.35452 -1.54962 5.06735 -21.083 -9.95467 
101.351 84.9868 120.805 9.04801 -2.24403 -71.7493 0 0 0 9.64795 20.2281 -4.20967 -10.3797 -8.88171 -1.05812 -3.10975 -12.0279 21.6768 -2.65095 1.42252 20.6399 -16.3467 2.70405 -8.16836 -29.2744 7.63882 -30.1343 15.0537 -4.49014 -106.229 -11.6901 0.453419 -4.42701 18.303 4.94334 16.1685 8.17266 -15.0468 -43.3793 -12.0115 5.10178 67.3176 -3.88184 -0.239738 7.06539 31.6683 2.23546 16.7284 1.92296 20.3849 -22.6031 2.44895 18.0721 -0.389513 3.00704 -34.5082 6.58556 -48.0802 -40.5992 -55.4284 1.96764e-007 61.0951 6.95906 -17.351 -5.42858 -0.82892 4.21477 -16.0182 -5.47653 
95.4335 86.0967 117.226 10.8439 -3.15864 -77.6511 0 0 0 12.1895 15.7333 -3.0126 -11.4132 -5.3462 0.317129 -9.05429 -14.2605 24.6338 -0.753718 2.03421 21.9803 -17.6922 2.53138 -6.87342 -28.2413 9.87797 -25.31 16.1244 -4.05892 -103.758 -10.61 0.453451 -4.88051 18.8367 5.09 16.3542 8.20946 -15.0434 -38.6317 -11.8009 4.75718 68.3496 -4.54535 -0.254858 6.41508 27.9099 4.28012 7.97698 5.26523 20.1168 -23.4545 18.6696 15.8349 -2.61918 1.0588 -15.4875 -0.156925 -39.7589 -42.4086 -51.2703 -7.29923e-008 62.4322 5.88005 -14.6372 -13.2404 -1.70799 3.04078 -10.9923 -3.59165 
90.5775 85.129 113.308 12.7775 -3.69073 -83.8134 0 0 0 14.3262 14.0416 -1.4256 -12.3851 -5.10683 2.17631 -13.0475 -14.1663 27.0096 1.62722 -0.463263 23.1982 -21.2573 2.78088 -6.52905 -27.8886 12.0202 -17.6351 16.5669 -3.69813 -102.233 -9.01167 0.416042 -5.27573 19.9888 5.50835 17.1013 9.98385 -15.509 -30.2646 -9.58329 4.94829 62.9381 -5.47504 -0.377349 7.87943 25.6579 0.473542 -5.02537 6.13148e-007 33.9658 -7.67602 23.4526 5.30014 -1.1009 0.990189 -15.1941 0.287809 -32.5462 -47.0644 -45.349 -3.84093e-008 66.2285 1.69769 -25.6889 -16.3023 -3.74105 4.93834 -19.3272 -6.05115 
86.0901 83.8782 109.323 11.2556 -5.11078 -90.508 0 0 0 14.6821 17.3421 -0.0576778 -13.2195 -5.53881 4.16611 -13.2706 -15.3886 28.5092 0.574644 -0.425789 24.898 -26.1181 3.02323 -5.8446 -28.5793 12.3087 -8.70648 17.406 -3.20381 -100.108 -7.9676 0.365887 -5.25011 21.7443 6.33113 18.757 11.9981 -18.5798 -21.7892 -8.98295 5.39133 59.274 -5.40867 -0.403147 8.5193 22.3613 -2.05313 -2.74457 1.23694e-007 48.9737 -6.40809 24.6776 -1.8534 0.405456 1.60444 -23.388 0.306044 -24.0275 -48.1453 -35.187 1.21219e-008 71.4971 0.149814 -26.749 -23.2943 -5.6116 4.45456 -17.0261 -5.08472 
81.1919 83.3705 104.715 11.2769 -4.79125 -96.1047 0 0 0 16.7765 18.2639 1.42935 -15.3485 -4.53016 6.43727 -14.2586 -17.4189 29.4555 -0.277812 0.515839 25.9204 -30.5589 3.09888 -4.94736 -32.4437 9.4484 0.004511 17.9738 -1.45884 -94.4872 -4.34453 0.185506 -4.8876 22.4554 6.95136 20.3284 16.474 -23.4596 -13.2013 -7.80429 4.71053 59.0712 -3.57532 -0.299107 9.56127 21.5044 -9.13206 1.12124 -4.84938e-007 63.9223 -8.82467 31.2141 -7.71811 2.15897 1.61708 -24.5704 3.96545 -13.8959 -46.5266 -27.6501 -1.20942e-008 72.8372 -0.580004 -30.6752 -28.6212 -8.00444 4.68086 -17.9587 -4.80756 
